<?xml version="1.0" encoding="UTF-8" standalone="no"?>
<svg
   xmlns:dc="http://purl.org/dc/elements/1.1/"
   xmlns:cc="http://creativecommons.org/ns#"
   xmlns:rdf="http://www.w3.org/1999/02/22-rdf-syntax-ns#"
   xmlns:svg="http://www.w3.org/2000/svg"
   xmlns="http://www.w3.org/2000/svg"
   xmlns:sodipodi="http://sodipodi.sourceforge.net/DTD/sodipodi-0.dtd"
   xmlns:inkscape="http://www.inkscape.org/namespaces/inkscape"
   viewBox="-926.5 -464 1853 928"
   width="1853"
   height="928"
   style="background-color: rgb(255, 255, 255);"
   version="1.1"
   id="svg8083"
   sodipodi:docname="HOI_Diagram.svg"
   inkscape:version="0.92.3 (2405546, 2018-03-11)">
  <metadata
     id="metadata8089">
    <rdf:RDF>
      <cc:Work
         rdf:about="">
        <dc:format>image/svg+xml</dc:format>
        <dc:type
           rdf:resource="http://purl.org/dc/dcmitype/StillImage" />
        <dc:title></dc:title>
      </cc:Work>
    </rdf:RDF>
  </metadata>
  <defs
     id="defs8087">
    <marker
       inkscape:stockid="Arrow2Mstart"
       orient="auto"
       refY="0.0"
       refX="0.0"
       id="Arrow2Mstart"
       style="overflow:visible"
       inkscape:isstock="true">
      <path
         id="path9070"
         style="fill-rule:evenodd;stroke-width:0.625;stroke-linejoin:round;stroke:#000000;stroke-opacity:1;fill:#000000;fill-opacity:1"
         d="M 8.7185878,4.0337352 L -2.2072895,0.016013256 L 8.7185884,-4.0017078 C 6.9730900,-1.6296469 6.9831476,1.6157441 8.7185878,4.0337352 z "
         transform="scale(0.6) translate(0,0)" />
    </marker>
    <marker
       inkscape:stockid="Arrow2Lstart"
       orient="auto"
       refY="0.0"
       refX="0.0"
       id="Arrow2Lstart"
       style="overflow:visible"
       inkscape:isstock="true">
      <path
         id="path9064"
         style="fill-rule:evenodd;stroke-width:0.625;stroke-linejoin:round;stroke:#000000;stroke-opacity:1;fill:#000000;fill-opacity:1"
         d="M 8.7185878,4.0337352 L -2.2072895,0.016013256 L 8.7185884,-4.0017078 C 6.9730900,-1.6296469 6.9831476,1.6157441 8.7185878,4.0337352 z "
         transform="scale(1.1) translate(1,0)" />
    </marker>
    <marker
       inkscape:stockid="Arrow1Lstart"
       orient="auto"
       refY="0.0"
       refX="0.0"
       id="Arrow1Lstart"
       style="overflow:visible"
       inkscape:isstock="true">
      <path
         id="path9046"
         d="M 0.0,0.0 L 5.0,-5.0 L -12.5,0.0 L 5.0,5.0 L 0.0,0.0 z "
         style="fill-rule:evenodd;stroke:#000000;stroke-width:1pt;stroke-opacity:1;fill:#000000;fill-opacity:1"
         transform="scale(0.8) translate(12.5,0)" />
    </marker>
    <marker
       inkscape:stockid="Arrow2Mstart"
       orient="auto"
       refY="0"
       refX="0"
       id="Arrow2Mstart-3"
       style="overflow:visible"
       inkscape:isstock="true">
      <path
         inkscape:connector-curvature="0"
         id="path9070-6"
         style="fill:#000000;fill-opacity:1;fill-rule:evenodd;stroke:#000000;stroke-width:0.625;stroke-linejoin:round;stroke-opacity:1"
         d="M 8.7185878,4.0337352 -2.2072895,0.01601326 8.7185884,-4.0017078 c -1.7454984,2.3720609 -1.7354408,5.6174519 -6e-7,8.035443 z"
         transform="scale(0.6)" />
    </marker>
  </defs>
  <sodipodi:namedview
     pagecolor="#ffffff"
     bordercolor="#666666"
     borderopacity="1"
     objecttolerance="10"
     gridtolerance="10"
     guidetolerance="10"
     inkscape:pageopacity="0"
     inkscape:pageshadow="2"
     inkscape:window-width="1853"
     inkscape:window-height="1025"
     id="namedview8085"
     showgrid="false"
     inkscape:zoom="1.8622132"
     inkscape:cx="1102.0913"
     inkscape:cy="485.47982"
     inkscape:window-x="67"
     inkscape:window-y="27"
     inkscape:window-maximized="1"
     inkscape:current-layer="svg8083" />
  <path
     d="M-7.472014075771783,82.21333380419915L-9.017225532793828,82.21098756523115M-9.017225532793827,-98.43764858184014L-9.017225532793828,82.21098756523115M-9.017225532793828,82.21098756523115L-12.100664379840772,98.40558331594426M-7.472014075771783,-98.43530234287213L-7.472014075771783,82.21333380419915M-7.472014075771783,82.21333380419915L-10.555452922818729,98.40792955491224"
     style="fill:none;stroke:rgb(0,0,0);stroke-width:1;stroke-linecap:round"
     id="path7887" />
  <path
     d="M-7.472014075771783,82.21333380419915L-9.017225532793828,82.21098756523116L-9.017225532793828,-98.43764858184012zM-7.472014075771783,-98.43530234287213L-7.472014075771783,82.21333380419915L-9.017225532793828,-98.43764858184012z"
     style="fill:rgb(238,238,238); fill-opacity: 0.49"
     id="path7889" />
  <path
     d="M-7.472014075771783,-98.43530234287213L-9.017225532793827,-98.43764858184014M-9.017225532793827,-98.43764858184014L-12.100664379840772,-82.24305283112703M-7.472014075771783,-98.43530234287213L-10.555452922818727,-82.24070659215903M21.613835925733248,67.68861772749187L20.068624468711203,67.68627148852387M20.068624468711203,-80.95435566271493L20.068624468711203,67.68627148852387M20.068624468711203,67.68627148852387L17.531520985491902,81.01144747760266M21.613835925733248,-80.95200942374693L21.613835925733248,67.68861772749187M21.613835925733248,67.68861772749187L19.076732442513947,81.01379371657066"
     style="fill:none;stroke:rgb(0,0,0);stroke-width:1;stroke-linecap:round"
     id="path7891" />
  <path
     d="M21.613835925733245,67.68861772749187L20.0686244687112,67.68627148852389L20.068624468711203,-80.95435566271492zM21.613835925733245,-80.95200942374693L21.613835925733245,67.68861772749187L20.068624468711203,-80.95435566271492z"
     style="fill:rgb(238,238,238); fill-opacity: 0.49"
     id="path7893" />
  <path
     d="M21.613835925733248,-80.95200942374693L20.068624468711203,-80.95435566271493M20.068624468711203,-80.95435566271493L17.531520985491902,-67.62917967363614M21.613835925733248,-80.95200942374693L19.076732442513947,-67.62683343466814"
     style="fill:none;stroke:rgb(0,0,0);stroke-width:1;stroke-linecap:round"
     id="path7895" />
  <path
     d="M-12.100664379840772,98.40558331594426L-9.017225532793828,82.21098756523116L-7.472014075771783,82.21333380419915z"
     style="fill:rgb(238,238,238); fill-opacity: 0.49"
     id="path7897" />
  <path
     d="M-8.289517554708334,-65.06898677641657L-9.83472901173038,-65.07133301538455M-9.83472901173038,-72.76763406691288L-9.83472901173038,-65.07133301538455M-9.83472901173038,-65.07133301538455L-9.96609492816902,-64.38138324901146M-9.062123521807862,-72.76645855731489L-9.062123521807862,-65.07015750578658M-9.062123521807862,-65.07015750578658L-9.193489438246504,-64.38020773941348M-9.062123521807862,-65.07015750578658L20.11453052869272,-56.38130160959612M-8.289517554708334,-72.76528782794487L-8.289517554708334,-65.06898677641657M-8.289517554708334,-65.06898677641657L-8.420883471146976,-64.37903701004346"
     style="fill:none;stroke:rgb(0,0,0);stroke-width:1;stroke-linecap:round"
     id="path7899" />
  <path
     d="M-8.289517554708334,-65.06898677641657L-9.83472901173038,-65.07133301538455L-9.83472901173038,-72.76763406691286zM-8.289517554708334,-72.76528782794487L-8.289517554708334,-65.06898677641657L-9.83472901173038,-72.76763406691286z"
     style="fill:rgb(153,221,255); fill-opacity: 0.6"
     id="path7901" />
  <path
     d="M-8.289517554708334,-72.76528782794487L-9.83472901173038,-72.76763406691288M-9.83472901173038,-72.76763406691288L-9.96609492816902,-72.07768430053977M-9.062123521807862,-72.76645855731489L-9.193489438246504,-72.0765087909418M-9.062123521807862,-72.76645855731489L20.11453052869272,-56.38130160959612M-8.289517554708334,-72.76528782794487L-8.420883471146976,-72.07533806157178"
     style="fill:none;stroke:rgb(0,0,0);stroke-width:1;stroke-linecap:round"
     id="path7903" />
  <path
     d="M-9.96609492816902,-64.38138324901146L-9.83472901173038,-65.07133301538455L-8.289517554708334,-65.06898677641657z"
     style="fill:rgb(153,221,255); fill-opacity: 0.6"
     id="path7905" />
  <path
     d="M-9.062123283219357,-72.76646094742887L-9.062123283219357,-65.07015989590056L-9.193489199657998,-64.38021012952748z"
     style="fill:rgb(255,187,187); fill-opacity: 0.6"
     id="path7907" />
  <path
     d="M-8.420883471146976,-64.37903701004348L-8.289517554708334,-65.06898677641657L-8.289517554708334,-72.76528782794487zM-9.83472901173038,-72.76763406691286L-9.83472901173038,-65.07133301538455L-9.96609492816902,-72.07768430053977zM-8.420883471146976,-72.07533806157178L-8.289517554708334,-72.76528782794487L-9.83472901173038,-72.76763406691286z"
     style="fill:rgb(153,221,255); fill-opacity: 0.6"
     id="path7909" />
  <path
     d="M-9.062123283219357,-65.07015989590056L-9.062123283219357,-72.76646094742887L20.114530051770288,-56.38130431330229z"
     style="fill:rgb(255,187,187); fill-opacity: 0.6"
     id="path7911" />
  <path
     d="M-10.555452922818727,98.40792955491224L-7.472014075771783,82.21333380419915L-7.472014075771783,-98.43530234287213z"
     style="fill:rgb(238,238,238); fill-opacity: 0.49"
     id="path7913" />
  <path
     d="M-8.420883471146976,-64.37903701004348L-9.96609492816902,-64.38138324901146L-8.289517554708334,-65.06898677641657zM-9.83472901173038,-65.07133301538455L-9.96609492816902,-64.38138324901146L-9.96609492816902,-72.07768430053977z"
     style="fill:rgb(153,221,255); fill-opacity: 0.6"
     id="path7915" />
  <path
     d="M-9.062123283219357,-72.76646094742887L-9.193489199657998,-64.38021012952748L-9.193489199657998,-72.07651118105579z"
     style="fill:rgb(255,187,187); fill-opacity: 0.6"
     id="path7917" />
  <path
     d="M-8.420883471146976,-72.07533806157178L-8.420883471146976,-64.37903701004348L-8.289517554708334,-72.76528782794487zM-9.96609492816902,-72.07768430053977L-8.420883471146976,-72.07533806157178L-9.83472901173038,-72.76763406691286z"
     style="fill:rgb(153,221,255); fill-opacity: 0.6"
     id="path7919" />
  <path
     d="M17.5315209854919,81.01144747760267L20.0686244687112,67.68627148852389L21.613835925733245,67.68861772749187z"
     style="fill:rgb(238,238,238); fill-opacity: 0.49"
     id="path7921" />
  <path
     d="M-9.193489199657998,-64.38021012952748L-9.062123283219357,-65.07015989590056L20.114530051770288,-56.38130431330229zM-9.062123283219357,-72.76646094742887L-9.193489199657998,-72.07651118105579L20.114530051770288,-56.38130431330229z"
     style="fill:rgb(255,187,187); fill-opacity: 0.6"
     id="path7923" />
  <path
     d="M-9.96609492816902,-72.07768430053977L-9.96609492816902,-64.38138324901146M-9.96609492816902,-64.38138324901146L-8.420883471146976,-64.37903701004346M-9.193489438246504,-64.38020773941348L-9.193489438246504,-72.0765087909418M-9.193489438246504,-64.38020773941348L20.11453052869272,-56.38130160959612M-8.420883471146976,-72.07533806157178L-8.420883471146976,-64.37903701004346"
     style="fill:none;stroke:rgb(0,0,0);stroke-width:1;stroke-linecap:round"
     id="path7925" />
  <path
     d="M-9.96609492816902,-64.38138324901146L-8.420883471146976,-64.37903701004348L-8.420883471146976,-72.07533806157178zM-9.96609492816902,-72.07768430053977L-9.96609492816902,-64.38138324901146L-8.420883471146976,-72.07533806157178z"
     style="fill:rgb(153,221,255); fill-opacity: 0.6"
     id="path7927" />
  <path
     d="M-9.96609492816902,-72.07768430053977L-8.420883471146976,-72.07533806157178M-9.193489438246504,-72.0765087909418L20.11453052869272,-56.38130160959612"
     style="fill:none;stroke:rgb(0,0,0);stroke-width:1;stroke-linecap:round"
     id="path7929" />
  <path
     d="M-9.193489199657998,-72.07651118105579L-9.193489199657998,-64.38021012952748L20.114530051770288,-56.38130431330229z"
     style="fill:rgb(255,187,187); fill-opacity: 0.6"
     id="path7931" />
  <path
     d="M-9.017225532793828,-98.43764858184012L-9.017225532793828,82.21098756523116L-12.100664379840772,-82.24305283112702zM19.076732442513947,81.01379371657066L21.613835925733245,67.68861772749187L21.613835925733245,-80.95200942374693zM20.068624468711203,-80.95435566271492L20.0686244687112,67.68627148852389L17.531520985491902,-67.62917967363613zM-10.555452922818727,-82.24070659215903L-7.472014075771783,-98.43530234287213L-9.017225532793828,-98.43764858184012z"
     style="fill:rgb(238,238,238); fill-opacity: 0.49"
     id="path7933" />
  <path
     d="M97.40251659455853,70.95397529192425L65.27074903578153,70.90518662626029M65.27074903578153,-73.57722310977421L65.27074903578153,70.90518662626029M65.27074903578153,70.90518662626029L64.72441357172964,73.77460691428449M97.40251659455853,-73.52843444411025L97.40251659455853,70.95397529192425M97.40251659455853,70.95397529192425L96.85618113050664,73.82339557994847M158.89330322209003,61.97840563929569L126.76153566331304,61.929616973631724M126.76153566331304,-64.41491904082713L126.76153566331304,61.929616973631724M126.76153566331304,61.929616973631724L126.21520019926116,64.79903726165593M158.89330322209003,-64.36613037516317L158.89330322209003,61.97840563929569M158.89330322209003,61.97840563929569L158.34696775803815,64.8478259273199"
     style="fill:none;stroke:rgb(0,0,0);stroke-width:1;stroke-linecap:round"
     id="path7935" />
  <path
     d="M19.076732442513947,-67.62683343466814L21.613835925733245,-80.95200942374693L20.068624468711203,-80.95435566271492z"
     style="fill:rgb(238,238,238); fill-opacity: 0.49"
     id="path7937" />
  <path
     d="M220.38408984962155,52.46873012122821L188.25232229084457,52.41994145556425M188.25232229084457,-54.718509106441154L188.25232229084457,52.41994145556425M188.25232229084457,52.41994145556425L187.7059868267927,55.28936174358847M220.38408984962155,-54.66972044077719L220.38408984962155,52.46873012122821M220.38408984962155,52.46873012122821L219.83775438556967,55.33815040925244"
     style="fill:none;stroke:rgb(0,0,0);stroke-width:1;stroke-linecap:round"
     id="path7939" />
  <path
     d="M97.40251659455852,70.95397529192425L65.27074903578153,70.90518662626029L65.27074903578153,-73.57722310977421z"
     style="fill:rgb(238,238,238); fill-opacity: 0.49"
     id="path7941" />
  <path
     d="M281.87487647715307,43.49315753269379L249.74310891837607,43.44436886702983M249.74310891837607,-45.55620210158822L249.74310891837607,43.44436886702983M249.74310891837607,43.44436886702983L249.1967734543242,46.31378915505405"
     style="fill:none;stroke:rgb(0,0,0);stroke-width:1;stroke-linecap:round"
     id="path7943" />
  <path
     d="M158.89330322209003,61.97840563929569L126.76153566331304,61.929616973631724L126.76153566331304,-64.41491904082713z"
     style="fill:rgb(238,238,238); fill-opacity: 0.49"
     id="path7945" />
  <path
     d="M281.87487647715307,-45.50741343592425L281.87487647715307,43.49315753269379M281.87487647715307,43.49315753269379L281.3285410131012,46.362577820718016"
     style="fill:none;stroke:rgb(0,0,0);stroke-width:1;stroke-linecap:round"
     id="path7947" />
  <path
     d="M220.38408984962155,52.46873012122822L188.25232229084457,52.41994145556425L188.25232229084457,-54.718509106441154z"
     style="fill:rgb(238,238,238); fill-opacity: 0.49"
     id="path7949" />
  <path
     d="M343.36566310468453,34.51758788006523L311.23389554590756,34.468799214401265M311.23389554590756,-36.39389803264114L311.23389554590756,34.468799214401265M311.23389554590756,34.468799214401265L310.6875600818557,37.33821950242549M343.36566310468453,-36.34510936697717L343.36566310468453,34.51758788006523M343.36566310468453,34.51758788006523L342.81932764063265,37.38700816808945"
     style="fill:none;stroke:rgb(0,0,0);stroke-width:1;stroke-linecap:round"
     id="path7951" />
  <path
     d="M281.87487647715307,43.4931575326938L249.74310891837607,43.44436886702983L249.74310891837607,-45.55620210158822zM97.40251659455852,-73.52843444411025L97.40251659455852,70.95397529192425L65.27074903578153,-73.57722310977421zM343.3656631046846,34.51758788006523L311.23389554590756,34.468799214401265L311.23389554590756,-36.39389803264114zM158.89330322209003,-64.36613037516317L158.89330322209003,61.97840563929569L126.76153566331304,-64.41491904082713zM220.38408984962155,-54.66972044077718L220.38408984962155,52.46873012122822L188.25232229084457,-54.718509106441154zM64.72441357172966,73.77460691428449L65.27074903578153,70.90518662626029L97.40251659455852,70.95397529192425zM281.87487647715307,-45.50741343592424L281.87487647715307,43.4931575326938L249.74310891837607,-45.55620210158822z"
     style="fill:rgb(238,238,238); fill-opacity: 0.49"
     id="path7953" />
  <path
     d="M404.8564497322161,-0.050763430143876534L372.72468217343913,-0.09955209580784782M372.72468217343913,-1.6388123061135114L372.72468217343913,-0.09955209580784782M372.72468217343913,-0.09955209580784782L372.17834670938726,2.7698681922163764M404.8564497322161,-1.5900236404495398L372.72468217343913,-1.6388123061135114M372.72468217343913,-1.6388123061135114L372.17834670938726,1.2306079819107127"
     style="fill:none;stroke:rgb(0,0,0);stroke-width:1;stroke-linecap:round"
     id="path7955" />
  <path
     d="M404.8564497322161,-0.050763430143876416L372.72468217343913,-0.09955209580784781L372.72468217343913,-1.6388123061135111zM343.3656631046846,-36.34510936697717L343.3656631046846,34.51758788006523L311.23389554590756,-36.39389803264114zM404.8564497322161,-1.5900236404495398L404.8564497322161,-0.050763430143876416L372.72468217343913,-1.6388123061135111z"
     style="fill:rgb(238,238,238); fill-opacity: 0.49"
     id="path7957" />
  <path
     d="M404.8564497322161,-1.5900236404495398L404.8564497322161,-0.050763430143876534M404.8564497322161,-0.050763430143876534L404.3101142681642,2.818656857880348M404.8564497322161,-1.5900236404495398L404.3101142681642,1.2793966475746839"
     style="fill:none;stroke:rgb(0,0,0);stroke-width:1;stroke-linecap:round"
     id="path7959" />
  <path
     d="M126.21520019926116,64.79903726165593L126.76153566331304,61.929616973631724L158.89330322209003,61.97840563929569z"
     style="fill:rgb(238,238,238); fill-opacity: 0.49"
     id="path7961" />
  <path
     d="M97.40251659455853,-73.52843444411025L65.27074903578153,-73.57722310977421M65.27074903578153,-73.57722310977421L64.72441357172964,-70.70780282175M158.89330322209003,-64.36613037516317L126.76153566331304,-64.41491904082713M126.76153566331304,-64.41491904082713L126.21520019926116,-61.54549875280292M220.38408984962155,-54.66972044077719L188.25232229084457,-54.718509106441154M188.25232229084457,-54.718509106441154L187.7059868267927,-51.84908881841693M97.40251659455853,-73.52843444411025L96.85618113050664,-70.65901415608603M281.87487647715307,-45.50741343592425L249.74310891837607,-45.55620210158822M249.74310891837607,-45.55620210158822L249.1967734543242,-42.686781813564M158.89330322209003,-64.36613037516317L158.34696775803815,-61.49671008713895M343.36566310468453,-36.34510936697717L311.23389554590756,-36.39389803264114M311.23389554590756,-36.39389803264114L310.6875600818557,-33.52447774461691M220.38408984962155,-54.66972044077719L219.83775438556967,-51.80030015275297M281.87487647715307,-45.50741343592425L281.3285410131012,-42.637993147900026M343.36566310468453,-36.34510936697717L342.81932764063265,-33.475689078952946"
     style="fill:none;stroke:rgb(0,0,0);stroke-width:1;stroke-linecap:round"
     id="path7963" />
  <path
     d="M187.7059868267927,55.28936174358847L188.25232229084457,52.41994145556425L220.38408984962155,52.46873012122822zM96.85618113050664,73.82339557994847L97.40251659455852,70.95397529192425L97.40251659455852,-73.52843444411025zM249.1967734543242,46.31378915505405L249.74310891837607,43.44436886702983L281.87487647715307,43.4931575326938zM158.34696775803815,64.8478259273199L158.89330322209003,61.97840563929569L158.89330322209003,-64.36613037516317zM219.83775438556967,55.33815040925244L220.38408984962155,52.46873012122822L220.38408984962155,-54.66972044077718zM310.6875600818557,37.33821950242549L311.23389554590756,34.468799214401265L343.3656631046846,34.51758788006523zM65.27074903578153,-73.57722310977421L65.27074903578153,70.90518662626029L64.72441357172966,-70.70780282175zM281.3285410131012,46.36257782071802L281.87487647715307,43.4931575326938L281.87487647715307,-45.50741343592424zM126.76153566331304,-64.41491904082713L126.76153566331304,61.929616973631724L126.21520019926116,-61.54549875280292zM342.8193276406327,37.38700816808945L343.3656631046846,34.51758788006523L343.3656631046846,-36.34510936697717zM188.25232229084457,-54.718509106441154L188.25232229084457,52.41994145556425L187.7059868267927,-51.84908881841693zM249.74310891837607,-45.55620210158822L249.74310891837607,43.44436886702983L249.1967734543242,-42.686781813564zM96.85618113050664,73.82339557994847L64.72441357172966,73.77460691428449L97.40251659455852,70.95397529192425z"
     style="fill:rgb(238,238,238); fill-opacity: 0.49"
     id="path7965" />
  <path
     d="M37.183774384690956,0.05645959977958583L53.66602992625943,0.08148614877147123"
     style="fill:none;stroke:rgb(0,0,0);stroke-width:1;stroke-linecap:round"
     id="path7967" />
  <path
     d="M311.23389554590756,-36.39389803264114L311.23389554590756,34.468799214401265L310.6875600818557,-33.52447774461691zM372.72468217343913,-1.6388123061135111L372.72468217343913,-0.09955209580784781L372.17834670938726,1.2306079819107127zM372.17834670938726,2.7698681922163764L372.72468217343913,-0.09955209580784781L404.8564497322161,-0.050763430143876416z"
     style="fill:rgb(238,238,238); fill-opacity: 0.49"
     id="path7969" />
  <path
     d="M53.70463739988223,-3.234504200952261L53.62742245263663,-2.8289619091851645L63.452369154065714,0.0963456622354032z"
     style="fill:rgb(0,0,0)"
     id="path7971" />
  <path
     d="M404.3101142681642,1.279396647574684L404.8564497322161,-1.5900236404495398L372.72468217343913,-1.6388123061135111zM404.3101142681642,2.818656857880348L404.8564497322161,-0.050763430143876416L404.8564497322161,-1.5900236404495398z"
     style="fill:rgb(238,238,238); fill-opacity: 0.49"
     id="path7973" />
  <path
     d="M98.67456101222245,0.14982680793884415L115.15681655379093,0.17485335693072954"
     style="fill:none;stroke:rgb(0,0,0);stroke-width:1;stroke-linecap:round"
     id="path7975" />
  <path
     d="M53.603561719277586,1.598720708524139L53.66602992625944,3.929636674535629L63.452369154065714,0.0963456622354032z"
     style="fill:rgb(0,0,0)"
     id="path7977" />
  <path
     d="M158.34696775803815,64.8478259273199L126.21520019926116,64.79903726165593L158.89330322209003,61.97840563929569z"
     style="fill:rgb(238,238,238); fill-opacity: 0.49"
     id="path7979" />
  <path
     d="M115.19542402741374,-3.141136992793003L115.11820908016814,-2.7355947010259065L124.94315578159723,0.18971287039466148z"
     style="fill:rgb(0,0,0)"
     id="path7981" />
  <path
     d="M96.85618113050664,-70.65901415608603L97.40251659455852,-73.52843444411025L65.27074903578153,-73.57722310977421z"
     style="fill:rgb(238,238,238); fill-opacity: 0.49"
     id="path7983" />
  <path
     d="M160.165347639754,0.24319401609810248L176.64760318132247,0.26822056508998793"
     style="fill:none;stroke:rgb(0,0,0);stroke-width:1;stroke-linecap:round"
     id="path7985" />
  <path
     d="M158.34696775803815,-61.49671008713895L158.89330322209003,-64.36613037516317L126.76153566331304,-64.41491904082713z"
     style="fill:rgb(238,238,238); fill-opacity: 0.49"
     id="path7987" />
  <path
     d="M53.62742245263663,-2.8289619091851645L53.603561719277586,1.598720708524139L63.452369154065714,0.0963456622354032z"
     style="fill:rgb(0,0,0)"
     id="path7989" />
  <path
     d="M219.83775438556967,-51.80030015275296L220.38408984962155,-54.66972044077718L188.25232229084457,-54.718509106441154z"
     style="fill:rgb(238,238,238); fill-opacity: 0.49"
     id="path7991" />
  <path
     d="M115.09434834680908,1.6920879166833973L115.15681655379095,4.023003882694888L124.94315578159723,0.18971287039466148zM176.68621065494526,-3.0477697846337444L176.60899570769968,-2.642227492866648L186.43394240912875,0.28308007855391987z"
     style="fill:rgb(0,0,0)"
     id="path7993" />
  <path
     d="M281.3285410131012,-42.63799314790002L281.87487647715307,-45.50741343592424L249.74310891837607,-45.55620210158822zM342.8193276406327,-33.475689078952946L343.3656631046846,-36.34510936697717L311.23389554590756,-36.39389803264114z"
     style="fill:rgb(238,238,238); fill-opacity: 0.49"
     id="path7995" />
  <path
     d="M221.6561342672855,0.3365612242573608L238.138389808854,0.36158777324924624"
     style="fill:none;stroke:rgb(0,0,0);stroke-width:1;stroke-linecap:round"
     id="path7997" />
  <path
     d="M115.11820908016814,-2.7355947010259065L115.09434834680908,1.6920879166833973L124.94315578159723,0.18971287039466148z"
     style="fill:rgb(0,0,0)"
     id="path7999" />
  <path
     d="M219.83775438556967,55.33815040925244L187.7059868267927,55.28936174358847L220.38408984962155,52.46873012122822z"
     style="fill:rgb(238,238,238); fill-opacity: 0.49"
     id="path8001" />
  <path
     d="M176.5851349743406,1.7854551248426558L176.64760318132247,4.1163710908541455L186.43394240912875,0.28308007855391987zM238.17699728247678,-2.9544025764744863L238.0997823352311,-2.54886028470739L247.92472903666024,0.3764472867131782z"
     style="fill:rgb(0,0,0)"
     id="path8003" />
  <path
     d="M65.27074903578153,70.90518662626029L64.72441357172966,73.77460691428449L64.72441357172966,-70.70780282175z"
     style="fill:rgb(238,238,238); fill-opacity: 0.49"
     id="path8005" />
  <path
     d="M283.146920894817,0.4299284324166191L299.6291764363855,0.4549549814085045"
     style="fill:none;stroke:rgb(0,0,0);stroke-width:1;stroke-linecap:round"
     id="path8007" />
  <path
     d="M176.60899570769968,-2.642227492866648L176.5851349743406,1.7854551248426558L186.43394240912875,0.28308007855391987zM238.07592160187212,1.878822333001914L238.13838980885393,4.209738299013404L247.92472903666024,0.3764472867131782zM299.6677839100083,-2.861035368315228L299.5905689627627,-2.4554930765481315L309.41551566419173,0.46981449487243643z"
     style="fill:rgb(0,0,0)"
     id="path8009" />
  <path
     d="M126.76153566331304,61.929616973631724L126.21520019926116,64.79903726165593L126.21520019926116,-61.54549875280292z"
     style="fill:rgb(238,238,238); fill-opacity: 0.49"
     id="path8011" />
  <path
     d="M344.63770752234853,0.5232956405758774L361.11996306391706,0.5483221895677628"
     style="fill:none;stroke:rgb(0,0,0);stroke-width:1;stroke-linecap:round"
     id="path8013" />
  <path
     d="M281.3285410131012,46.36257782071802L249.1967734543242,46.31378915505405L281.87487647715307,43.4931575326938z"
     style="fill:rgb(238,238,238); fill-opacity: 0.49"
     id="path8015" />
  <path
     d="M238.0997823352311,-2.54886028470739L238.07592160187212,1.878822333001914L247.92472903666024,0.3764472867131782zM299.5667082294037,1.9721895411611725L299.6291764363855,4.3031055071726625L309.41551566419173,0.46981449487243643zM361.1585705375398,-2.7676681601559694L361.08135559029415,-2.362125868388873L370.9063022917233,0.5631817030316947z"
     style="fill:rgb(0,0,0)"
     id="path8017" />
  <path
     d="M188.25232229084457,52.41994145556425L187.7059868267927,55.28936174358847L187.7059868267927,-51.84908881841693z"
     style="fill:rgb(238,238,238); fill-opacity: 0.49"
     id="path8019" />
  <path
     d="M299.5905689627627,-2.4554930765481315L299.5667082294037,1.9721895411611725L309.41551566419173,0.46981449487243643zM361.0574948569352,2.065556749320431L361.119963063917,4.396472715331921L370.9063022917233,0.5631817030316947z"
     style="fill:rgb(0,0,0)"
     id="path8021" />
  <path
     d="M342.8193276406327,37.38700816808945L310.6875600818557,37.33821950242549L343.3656631046846,34.51758788006523z"
     style="fill:rgb(238,238,238); fill-opacity: 0.49"
     id="path8023" />
  <path
     d="M361.08135559029415,-2.362125868388873L361.0574948569352,2.065556749320431L370.9063022917233,0.5631817030316947z"
     style="fill:rgb(0,0,0)"
     id="path8025" />
  <path
     d="M249.74310891837607,43.44436886702983L249.1967734543242,46.31378915505405L249.1967734543242,-42.686781813564zM96.85618113050664,-70.65901415608603L96.85618113050664,73.82339557994847L97.40251659455852,-73.52843444411025zM311.23389554590756,34.468799214401265L310.6875600818557,37.33821950242549L310.6875600818557,-33.52447774461691zM158.34696775803815,-61.49671008713895L158.34696775803815,64.8478259273199L158.89330322209003,-64.36613037516317z"
     style="fill:rgb(238,238,238); fill-opacity: 0.49"
     id="path8027" />
  <path
     d="M64.72441357172964,-70.70780282175L64.72441357172964,73.77460691428449M64.72441357172964,73.77460691428449L96.85618113050664,73.82339557994847"
     style="fill:none;stroke:rgb(0,0,0);stroke-width:1;stroke-linecap:round"
     id="path8029" />
  <path
     d="M219.83775438556967,-51.80030015275296L219.83775438556967,55.33815040925244L220.38408984962155,-54.66972044077718z"
     style="fill:rgb(238,238,238); fill-opacity: 0.49"
     id="path8031" />
  <path
     d="M96.85618113050664,-70.65901415608603L96.85618113050664,73.82339557994847"
     style="fill:none;stroke:rgb(0,0,0);stroke-width:1;stroke-linecap:round"
     id="path8033" />
  <path
     d="M281.3285410131012,-42.63799314790002L281.3285410131012,46.36257782071802L281.87487647715307,-45.50741343592424zM372.72468217343913,-0.09955209580784781L372.17834670938726,2.7698681922163764L372.17834670938726,1.2306079819107127zM372.17834670938726,1.2306079819107127L404.3101142681642,1.279396647574684L372.72468217343913,-1.6388123061135111zM404.3101142681642,2.818656857880348L372.17834670938726,2.7698681922163764L404.8564497322161,-0.050763430143876416zM342.8193276406327,-33.475689078952946L342.8193276406327,37.38700816808945L343.3656631046846,-36.34510936697717zM404.3101142681642,1.279396647574684L404.3101142681642,2.818656857880348L404.8564497322161,-1.5900236404495398z"
     style="fill:rgb(238,238,238); fill-opacity: 0.49"
     id="path8035" />
  <path
     d="M126.21520019926116,-61.54549875280292L126.21520019926116,64.79903726165593M126.21520019926116,64.79903726165593L158.34696775803815,64.8478259273199M158.34696775803815,-61.49671008713895L158.34696775803815,64.8478259273199"
     style="fill:none;stroke:rgb(0,0,0);stroke-width:1;stroke-linecap:round"
     id="path8037" />
  <path
     d="M64.72441357172966,-70.70780282175L96.85618113050664,-70.65901415608603L65.27074903578153,-73.57722310977421zM126.21520019926116,-61.54549875280292L158.34696775803815,-61.49671008713895L126.76153566331304,-64.41491904082713zM187.7059868267927,-51.84908881841693L219.83775438556967,-51.80030015275296L188.25232229084457,-54.718509106441154zM249.1967734543242,-42.686781813564L281.3285410131012,-42.63799314790002L249.74310891837607,-45.55620210158822zM310.6875600818557,-33.52447774461691L342.8193276406327,-33.475689078952946L311.23389554590756,-36.39389803264114z"
     style="fill:rgb(238,238,238); fill-opacity: 0.49"
     id="path8039" />
  <path
     d="M187.7059868267927,-51.84908881841693L187.7059868267927,55.28936174358847M187.7059868267927,55.28936174358847L219.83775438556967,55.33815040925244M219.83775438556967,-51.80030015275297L219.83775438556967,55.33815040925244"
     style="fill:none;stroke:rgb(0,0,0);stroke-width:1;stroke-linecap:round"
     id="path8041" />
  <path
     d="M64.72441357172966,73.77460691428449L96.85618113050664,73.82339557994847L96.85618113050664,-70.65901415608603z"
     style="fill:rgb(238,238,238); fill-opacity: 0.49"
     id="path8043" />
  <path
     d="M249.1967734543242,-42.686781813564L249.1967734543242,46.31378915505405M249.1967734543242,46.31378915505405L281.3285410131012,46.362577820718016"
     style="fill:none;stroke:rgb(0,0,0);stroke-width:1;stroke-linecap:round"
     id="path8045" />
  <path
     d="M126.21520019926116,64.79903726165593L158.34696775803815,64.8478259273199L158.34696775803815,-61.49671008713895z"
     style="fill:rgb(238,238,238); fill-opacity: 0.49"
     id="path8047" />
  <path
     d="M281.3285410131012,-42.637993147900026L281.3285410131012,46.362577820718016"
     style="fill:none;stroke:rgb(0,0,0);stroke-width:1;stroke-linecap:round"
     id="path8049" />
  <path
     d="M187.7059868267927,55.28936174358847L219.83775438556967,55.33815040925244L219.83775438556967,-51.80030015275296z"
     style="fill:rgb(238,238,238); fill-opacity: 0.49"
     id="path8051" />
  <path
     d="M310.6875600818557,-33.52447774461691L310.6875600818557,37.33821950242549M310.6875600818557,37.33821950242549L342.81932764063265,37.38700816808945"
     style="fill:none;stroke:rgb(0,0,0);stroke-width:1;stroke-linecap:round"
     id="path8053" />
  <path
     d="M19.076732442513947,81.01379371657066L17.5315209854919,81.01144747760267L21.613835925733245,67.68861772749187z"
     style="fill:rgb(238,238,238); fill-opacity: 0.49"
     id="path8055" />
  <path
     d="M342.81932764063265,-33.475689078952946L342.81932764063265,37.38700816808945"
     style="fill:none;stroke:rgb(0,0,0);stroke-width:1;stroke-linecap:round"
     id="path8057" />
  <path
     d="M249.1967734543242,46.31378915505405L281.3285410131012,46.36257782071802L281.3285410131012,-42.63799314790002zM64.72441357172966,-70.70780282175L64.72441357172966,73.77460691428449L96.85618113050664,-70.65901415608603zM126.21520019926116,-61.54549875280292L126.21520019926116,64.79903726165593L158.34696775803815,-61.49671008713895zM310.6875600818557,37.33821950242549L342.8193276406327,37.38700816808945L342.8193276406327,-33.475689078952946zM187.7059868267927,-51.84908881841693L187.7059868267927,55.28936174358847L219.83775438556967,-51.80030015275296zM249.1967734543242,-42.686781813564L249.1967734543242,46.31378915505405L281.3285410131012,-42.63799314790002zM-10.555452922818727,98.40792955491224L-12.100664379840772,98.40558331594426L-7.472014075771783,82.21333380419915z"
     style="fill:rgb(238,238,238); fill-opacity: 0.49"
     id="path8059" />
  <path
     d="M372.17834670938726,1.2306079819107127L372.17834670938726,2.7698681922163764M372.17834670938726,2.7698681922163764L404.3101142681642,2.818656857880348M372.17834670938726,1.2306079819107127L404.3101142681642,1.2793966475746839"
     style="fill:none;stroke:rgb(0,0,0);stroke-width:1;stroke-linecap:round"
     id="path8061" />
  <path
     d="M310.6875600818557,-33.52447774461691L310.6875600818557,37.33821950242549L342.8193276406327,-33.475689078952946zM372.17834670938726,1.2306079819107127L372.17834670938726,2.7698681922163764L404.3101142681642,1.279396647574684zM372.17834670938726,2.7698681922163764L404.3101142681642,2.818656857880348L404.3101142681642,1.279396647574684z"
     style="fill:rgb(238,238,238); fill-opacity: 0.49"
     id="path8063" />
  <path
     d="M404.3101142681642,1.2793966475746839L404.3101142681642,2.818656857880348"
     style="fill:none;stroke:rgb(0,0,0);stroke-width:1;stroke-linecap:round"
     id="path8065" />
  <path
     d="M20.0686244687112,67.68627148852389L17.5315209854919,81.01144747760267L17.531520985491902,-67.62917967363613z"
     style="fill:rgb(238,238,238); fill-opacity: 0.49"
     id="path8067" />
  <path
     d="M64.72441357172964,-70.70780282175L96.85618113050664,-70.65901415608603M126.21520019926116,-61.54549875280292L158.34696775803815,-61.49671008713895M187.7059868267927,-51.84908881841693L219.83775438556967,-51.80030015275297M249.1967734543242,-42.686781813564L281.3285410131012,-42.637993147900026M310.6875600818557,-33.52447774461691L342.81932764063265,-33.475689078952946"
     style="fill:none;stroke:rgb(0,0,0);stroke-width:1;stroke-linecap:round"
     id="path8069" />
  <path
     d="M-9.017225532793828,82.21098756523116L-12.100664379840772,98.40558331594426L-12.100664379840772,-82.24305283112702zM19.076732442513947,-67.62683343466814L19.076732442513947,81.01379371657066L21.613835925733245,-80.95200942374693zM17.531520985491902,-67.62917967363613L19.076732442513947,-67.62683343466814L20.068624468711203,-80.95435566271492zM-10.555452922818727,-82.24070659215903L-10.555452922818727,98.40792955491224L-7.472014075771783,-98.43530234287213zM-12.100664379840772,-82.24305283112702L-10.555452922818727,-82.24070659215903L-9.017225532793828,-98.43764858184012z"
     style="fill:rgb(238,238,238); fill-opacity: 0.49"
     id="path8071" />
  <path
     d="M17.531520985491902,-67.62917967363614L17.531520985491902,81.01144747760266M17.531520985491902,81.01144747760266L19.076732442513947,81.01379371657066M19.076732442513947,-67.62683343466814L19.076732442513947,81.01379371657066"
     style="fill:none;stroke:rgb(0,0,0);stroke-width:1;stroke-linecap:round"
     id="path8073" />
  <path
     d="M17.5315209854919,81.01144747760267L19.076732442513947,81.01379371657066L19.076732442513947,-67.62683343466814zM17.531520985491902,-67.62917967363613L17.5315209854919,81.01144747760267L19.076732442513947,-67.62683343466814z"
     style="fill:rgb(238,238,238); fill-opacity: 0.49"
     id="path8075" />
  <path
     d="M17.531520985491902,-67.62917967363614L19.076732442513947,-67.62683343466814M-12.100664379840772,-82.24305283112703L-12.100664379840772,98.40558331594426M-12.100664379840772,98.40558331594426L-10.555452922818729,98.40792955491224M-10.555452922818727,-82.24070659215903L-10.555452922818729,98.40792955491224"
     style="fill:none;stroke:rgb(0,0,0);stroke-width:1;stroke-linecap:round"
     id="path8077" />
  <path
     d="M-12.100664379840772,98.40558331594426L-10.555452922818727,98.40792955491224L-10.555452922818727,-82.24070659215903zM-12.100664379840772,-82.24305283112702L-12.100664379840772,98.40558331594426L-10.555452922818727,-82.24070659215903z"
     style="fill:rgb(238,238,238); fill-opacity: 0.49"
     id="path8079" />
  <path
     d="M-12.100664379840772,-82.24305283112703L-10.555452922818727,-82.24070659215903"
     style="fill:none;stroke:rgb(0,0,0);stroke-width:1;stroke-linecap:round"
     id="path8081" />
  <flowRoot
     xml:space="preserve"
     id="flowRoot8091"
     style="font-style:normal;font-weight:normal;font-size:40px;line-height:125%;font-family:sans-serif;letter-spacing:0px;word-spacing:0px;fill:#000000;fill-opacity:1;stroke:none;stroke-width:1px;stroke-linecap:butt;stroke-linejoin:miter;stroke-opacity:1"
     transform="translate(-926.5,-464)"><flowRegion
       id="flowRegion8093"><rect
         id="rect8095"
         width="68.198418"
         height="75.716354"
         x="893.56042"
         y="566.60205" /></flowRegion><flowPara
       id="flowPara8097">fdsafsdfas</flowPara></flowRoot>  <flowRoot
     xml:space="preserve"
     id="flowRoot8099"
     style="font-style:normal;font-weight:normal;font-size:16px;line-height:125%;font-family:sans-serif;letter-spacing:0px;word-spacing:0px;fill:#000000;fill-opacity:1;stroke:none;stroke-width:1px;stroke-linecap:butt;stroke-linejoin:miter;stroke-opacity:1"
     transform="translate(-926.5,-464)"><flowRegion
       id="flowRegion8101"><rect
         id="rect8103"
         width="41.348621"
         height="21.479841"
         x="898.93036"
         y="566.06506" /></flowRegion><flowPara
       id="flowPara8105" /></flowRoot>  <flowRoot
     xml:space="preserve"
     id="flowRoot8107"
     style="fill:black;stroke:none;stroke-opacity:1;stroke-width:1px;stroke-linejoin:miter;stroke-linecap:butt;fill-opacity:1;font-family:sans-serif;font-style:normal;font-weight:normal;font-size:16px;line-height:125%;letter-spacing:0px;word-spacing:0px"><flowRegion
       id="flowRegion8109"><rect
         id="rect8111"
         width="27.923763"
         height="22.553808"
         x="902.15234"
         y="567.13904" /></flowRegion><flowPara
       id="flowPara8113"></flowPara></flowRoot>  <flowRoot
     xml:space="preserve"
     id="flowRoot8115"
     style="font-style:normal;font-weight:normal;font-size:16px;line-height:125%;font-family:sans-serif;letter-spacing:0px;word-spacing:0px;fill:#000000;fill-opacity:1;stroke:none;stroke-width:1px;stroke-linecap:butt;stroke-linejoin:miter;stroke-opacity:1"
     transform="translate(-926.5,-464)"><flowRegion
       id="flowRegion8117"><rect
         id="rect8119"
         width="142.77213"
         height="104.80082"
         x="677.4082"
         y="379.69427" /></flowRegion><flowPara
       id="flowPara8121" /></flowRoot>  <text
     xml:space="preserve"
     style="font-style:normal;font-weight:normal;font-size:16px;line-height:125%;font-family:sans-serif;letter-spacing:0px;word-spacing:0px;fill:#000000;fill-opacity:1;stroke:none;stroke-width:1px;stroke-linecap:butt;stroke-linejoin:miter;stroke-opacity:1"
     x="-548.30573"
     y="-44.815582"
     id="text8125"><tspan
       sodipodi:role="line"
       id="tspan8123"
       x="-548.30573"
       y="-30.659332" /></text>
  <flowRoot
     xml:space="preserve"
     id="flowRoot8127"
     style="font-style:normal;font-weight:normal;font-size:10.66666667px;line-height:125%;font-family:sans-serif;letter-spacing:0px;word-spacing:0px;fill:#000000;fill-opacity:1;stroke:none;stroke-width:1px;stroke-linecap:butt;stroke-linejoin:miter;stroke-opacity:1;"
     transform="translate(-926.5,-464)"><flowRegion
       id="flowRegion8129"
       style="font-size:10.66666667px;"><rect
         id="rect8131"
         width="27.923763"
         height="15.572867"
         x="902.15234"
         y="566.06506"
         style="font-size:10.66666667px;" /></flowRegion><flowPara
       id="flowPara8133" /></flowRoot>  <flowRoot
     xml:space="preserve"
     id="flowRoot8135"
     style="font-style:normal;font-weight:normal;font-size:10.66666698px;line-height:125%;font-family:sans-serif;letter-spacing:0px;word-spacing:0px;fill:#000000;fill-opacity:1;stroke:none;stroke-width:1px;stroke-linecap:butt;stroke-linejoin:miter;stroke-opacity:1"
     transform="translate(-937.51168,-461.72172)"><flowRegion
       id="flowRegion8137"><rect
         id="rect8139"
         width="75.942642"
         height="26.200207"
         x="899.16064"
         y="564.23486" /></flowRegion><flowPara
       id="flowPara8141">50x5 Input</flowPara></flowRoot>  <flowRoot
     xml:space="preserve"
     id="flowRoot8143"
     style="font-style:normal;font-weight:normal;font-size:10.66666698px;line-height:125%;font-family:sans-serif;letter-spacing:0px;word-spacing:0px;fill:#000000;fill-opacity:1;stroke:none;stroke-width:1px;stroke-linecap:butt;stroke-linejoin:miter;stroke-opacity:1"
     transform="translate(-926.5,-464)"><flowRegion
       id="flowRegion8145"><rect
         id="rect8147"
         width="34.933632"
         height="15.947937"
         x="932.95514"
         y="548.28687" /></flowRegion><flowPara
       id="flowPara8149">25x10</flowPara></flowRoot>  <flowRoot
     xml:space="preserve"
     id="flowRoot8151"
     style="font-style:normal;font-weight:normal;font-size:10.66666698px;line-height:125%;font-family:sans-serif;text-align:center;letter-spacing:0px;word-spacing:0px;text-anchor:middle;fill:#000000;fill-opacity:1;stroke:none;stroke-width:1px;stroke-linecap:butt;stroke-linejoin:miter;stroke-opacity:1"
     transform="translate(-926.5,-464)"><flowRegion
       id="flowRegion8153"
       style="text-align:center;text-anchor:middle"><rect
         id="rect8155"
         width="38.351025"
         height="18.605942"
         x="988.01355"
         y="543.73035"
         style="text-align:center;text-anchor:middle" /></flowRegion><flowPara
       id="flowPara8157">250</flowPara></flowRoot>  <flowRoot
     xml:space="preserve"
     id="flowRoot8159"
     style="fill:black;stroke:none;stroke-opacity:1;stroke-width:1px;stroke-linejoin:miter;stroke-linecap:butt;fill-opacity:1;font-family:sans-serif;font-style:normal;font-weight:normal;font-size:10.66666667px;line-height:125%;letter-spacing:0px;word-spacing:0px;text-anchor:middle;text-align:center;"><flowRegion
       id="flowRegion8161"
       style="text-anchor:middle;text-align:center;"><rect
         id="rect8163"
         width="34.174179"
         height="17.08709"
         x="1051.0459"
         y="533.47809"
         style="text-anchor:middle;text-align:center;" /></flowRegion><flowPara
       id="flowPara8165"></flowPara></flowRoot>  <flowRoot
     xml:space="preserve"
     id="flowRoot8167"
     style="font-style:normal;font-weight:normal;font-size:10.66666698px;line-height:125%;font-family:sans-serif;text-align:center;letter-spacing:0px;word-spacing:0px;text-anchor:middle;fill:#000000;fill-opacity:1;stroke:none;stroke-width:1px;stroke-linecap:butt;stroke-linejoin:miter;stroke-opacity:1"
     transform="translate(-926.5,-464)"><flowRegion
       id="flowRegion8169"
       style="text-align:center;text-anchor:middle"><rect
         id="rect8171"
         width="33.794468"
         height="13.669672"
         x="1052.1851"
         y="534.23749"
         style="text-align:center;text-anchor:middle" /></flowRegion><flowPara
       id="flowPara8173">120</flowPara></flowRoot>  <flowRoot
     xml:space="preserve"
     id="flowRoot8175"
     style="font-style:normal;font-weight:normal;font-size:10.66666698px;line-height:125%;font-family:sans-serif;text-align:center;letter-spacing:0px;word-spacing:0px;text-anchor:middle;fill:#000000;fill-opacity:1;stroke:none;stroke-width:1px;stroke-linecap:butt;stroke-linejoin:miter;stroke-opacity:1"
     transform="translate(-926.5,-464)"><flowRegion
       id="flowRegion8177"
       style="text-align:center;text-anchor:middle"><rect
         id="rect8179"
         width="29.997335"
         height="14.429098"
         x="1115.2174"
         y="523.98523"
         style="text-align:center;text-anchor:middle" /></flowRegion><flowPara
       id="flowPara8181">60</flowPara></flowRoot>  <flowRoot
     xml:space="preserve"
     id="flowRoot8183"
     style="fill:black;stroke:none;stroke-opacity:1;stroke-width:1px;stroke-linejoin:miter;stroke-linecap:butt;fill-opacity:1;font-family:sans-serif;font-style:normal;font-weight:normal;font-size:10.66666667px;line-height:125%;letter-spacing:0px;word-spacing:0px;text-anchor:start;text-align:start;"><flowRegion
       id="flowRegion8185"
       style="text-anchor:start;text-align:start;"><rect
         id="rect8187"
         width="31.136475"
         height="17.846516"
         x="1175.9716"
         y="514.87213"
         style="text-anchor:start;text-align:start;" /></flowRegion><flowPara
       id="flowPara8189"></flowPara></flowRoot>  <flowRoot
     xml:space="preserve"
     id="flowRoot8191"
     style="font-style:normal;font-weight:normal;font-size:10.66666698px;line-height:125%;font-family:sans-serif;text-align:center;letter-spacing:0px;word-spacing:0px;text-anchor:middle;fill:#000000;fill-opacity:1;stroke:none;stroke-width:1px;stroke-linecap:butt;stroke-linejoin:miter;stroke-opacity:1"
     transform="translate(-926.5,-464)"><flowRegion
       id="flowRegion8193"
       style="text-align:center;text-anchor:middle"><rect
         id="rect8195"
         width="31.136475"
         height="14.429098"
         x="1176.3512"
         y="515.63153"
         style="text-align:center;text-anchor:middle" /></flowRegion><flowPara
       id="flowPara8197">30</flowPara></flowRoot>  <flowRoot
     xml:space="preserve"
     id="flowRoot8199"
     style="fill:black;stroke:none;stroke-opacity:1;stroke-width:1px;stroke-linejoin:miter;stroke-linecap:butt;fill-opacity:1;font-family:sans-serif;font-style:normal;font-weight:normal;font-size:10.66666667px;line-height:125%;letter-spacing:0px;word-spacing:0px;text-anchor:start;text-align:start;"><flowRegion
       id="flowRegion8201"
       style="text-anchor:start;text-align:start;"><rect
         id="rect8203"
         width="32.275616"
         height="14.808811"
         x="1237.1053"
         y="506.13873"
         style="text-anchor:start;text-align:start;" /></flowRegion><flowPara
       id="flowPara8205"></flowPara></flowRoot>  <flowRoot
     xml:space="preserve"
     id="flowRoot8207"
     style="fill:black;stroke:none;stroke-opacity:1;stroke-width:1px;stroke-linejoin:miter;stroke-linecap:butt;fill-opacity:1;font-family:sans-serif;font-style:normal;font-weight:normal;font-size:10.66666667px;line-height:125%;letter-spacing:0px;word-spacing:0px;text-anchor:middle;text-align:center;"><flowRegion
       id="flowRegion8209"
       style="text-anchor:middle;text-align:center;"><rect
         id="rect8211"
         width="32.655327"
         height="17.466803"
         x="1237.1053"
         y="508.03729"
         style="text-anchor:middle;text-align:center;" /></flowRegion><flowPara
       id="flowPara8213"></flowPara></flowRoot>  <flowRoot
     xml:space="preserve"
     id="flowRoot8215"
     style="font-style:normal;font-weight:normal;font-size:10.66666698px;line-height:125%;font-family:sans-serif;text-align:center;letter-spacing:0px;word-spacing:0px;text-anchor:middle;fill:#000000;fill-opacity:1;stroke:none;stroke-width:1px;stroke-linecap:butt;stroke-linejoin:miter;stroke-opacity:1"
     transform="translate(-926.5,-464)"><flowRegion
       id="flowRegion8217"
       style="text-align:center;text-anchor:middle"><rect
         id="rect8219"
         width="33.414753"
         height="16.707376"
         x="1236.3459"
         y="506.89816"
         style="text-align:center;text-anchor:middle" /></flowRegion><flowPara
       id="flowPara8221">15</flowPara></flowRoot>  <flowRoot
     xml:space="preserve"
     id="flowRoot8223"
     style="fill:black;stroke:none;stroke-opacity:1;stroke-width:1px;stroke-linejoin:miter;stroke-linecap:butt;fill-opacity:1;font-family:sans-serif;font-style:normal;font-weight:normal;font-size:10.66666667px;line-height:125%;letter-spacing:0px;word-spacing:0px;text-anchor:middle;text-align:center;"><flowRegion
       id="flowRegion8225"
       style="text-anchor:middle;text-align:center;"><rect
         id="rect8227"
         width="33.414753"
         height="17.846516"
         x="1297.8594"
         y="473.4834"
         style="text-anchor:middle;text-align:center;" /></flowRegion><flowPara
       id="flowPara8229"></flowPara></flowRoot>  <flowRoot
     xml:space="preserve"
     id="flowRoot8231"
     style="font-style:normal;font-weight:normal;font-size:10.66666698px;line-height:125%;font-family:sans-serif;letter-spacing:0px;word-spacing:0px;fill:#000000;fill-opacity:1;stroke:none;stroke-width:1px;stroke-linecap:butt;stroke-linejoin:miter;stroke-opacity:1"
     transform="translate(-926.5,-464)"><flowRegion
       id="flowRegion8233"><rect
         id="rect8235"
         width="42.148148"
         height="17.466797"
         x="1298.2391"
         y="471.20511"
         ry="0" /></flowRegion><flowPara
       id="flowPara8237">Output</flowPara></flowRoot>  <path
     style="fill:none;fill-rule:evenodd;stroke:#000000;stroke-width:0.40074238px;stroke-linecap:butt;stroke-linejoin:miter;stroke-opacity:1;marker-start:url(#Arrow2Mstart)"
     d="M 3.9009877,-74.521275 11.21625,-92.905209"
     id="path8239"
     inkscape:connector-curvature="0" />
  <flowRoot
     xml:space="preserve"
     id="flowRoot9626"
     style="font-style:normal;font-weight:normal;font-size:10.66666698px;line-height:125%;font-family:sans-serif;letter-spacing:0px;word-spacing:0px;fill:#000000;fill-opacity:1;stroke:none;stroke-width:1px;stroke-linecap:butt;stroke-linejoin:miter;stroke-opacity:1"
     transform="translate(-956.11762,-467.79713)"><flowRegion
       id="flowRegion9628"><rect
         id="rect9630"
         width="65.690369"
         height="16.327663"
         x="952.7002"
         y="361.46802" /></flowRegion><flowPara
       id="flowPara9632">10x5 Filter</flowPara></flowRoot>  <path
     style="fill:none;fill-rule:evenodd;stroke:#000000;stroke-width:0.9284907px;stroke-linecap:butt;stroke-linejoin:miter;stroke-opacity:1;marker-start:url(#Arrow2Mstart-3)"
     d="M 40.949786,-12.219173 52.31972,-75.713597"
     id="path8239-7"
     inkscape:connector-curvature="0" />
  <flowRoot
     xml:space="preserve"
     id="flowRoot10443"
     style="font-style:normal;font-weight:normal;font-size:10.66666698px;line-height:125%;font-family:sans-serif;letter-spacing:0px;word-spacing:0px;fill:#000000;fill-opacity:1;stroke:none;stroke-width:1px;stroke-linecap:butt;stroke-linejoin:miter;stroke-opacity:1"
     transform="translate(-945.48566,-460.58258)"><flowRegion
       id="flowRegion10445"><rect
         id="rect10447"
         width="40.629303"
         height="14.808811"
         x="986.11499"
         y="370.96085" /></flowRegion><flowPara
       id="flowPara10449">Flatten</flowPara></flowRoot></svg>
